<mxfile host="app.diagrams.net" modified="2021-04-19T08:43:15.640Z" agent="5.0 (Macintosh; Intel Mac OS X 10_15_5) AppleWebKit/537.36 (KHTML, like Gecko) Chrome/89.0.4389.114 Safari/537.36" etag="Kyci2cvE1UfhMtTKMP9H" version="14.4.6" type="github">
  <diagram id="HME9X4zxY0MB1SYocmlw" name="Page-1">
    <mxGraphModel dx="537" dy="1450" grid="0" gridSize="10" guides="1" tooltips="1" connect="1" arrows="1" fold="1" page="1" pageScale="1" pageWidth="827" pageHeight="1169" math="0" shadow="0">
      <root>
        <mxCell id="0" />
        <mxCell id="1" parent="0" />
        <mxCell id="gJSb4Hx4qruTzhkWXDHl-5" value="Spring Boot" style="rounded=0;whiteSpace=wrap;html=1;fillColor=#d5e8d4;strokeColor=#82b366;verticalAlign=top;" vertex="1" parent="1">
          <mxGeometry x="89" y="606" width="422" height="242" as="geometry" />
        </mxCell>
        <mxCell id="gJSb4Hx4qruTzhkWXDHl-11" value="User-Service" style="rounded=0;whiteSpace=wrap;html=1;fillColor=#dae8fc;strokeColor=#6c8ebf;verticalAlign=top;" vertex="1" parent="1">
          <mxGeometry x="89" y="638" width="211" height="92" as="geometry" />
        </mxCell>
        <mxCell id="gJSb4Hx4qruTzhkWXDHl-12" value="Trip-Service" style="rounded=0;whiteSpace=wrap;html=1;fillColor=#dae8fc;strokeColor=#6c8ebf;verticalAlign=bottom;" vertex="1" parent="1">
          <mxGeometry x="300" y="730" width="211" height="92" as="geometry" />
        </mxCell>
        <mxCell id="gJSb4Hx4qruTzhkWXDHl-13" value="Payment-Service" style="rounded=0;whiteSpace=wrap;html=1;fillColor=#dae8fc;strokeColor=#6c8ebf;verticalAlign=bottom;" vertex="1" parent="1">
          <mxGeometry x="89" y="730" width="211" height="92" as="geometry" />
        </mxCell>
        <mxCell id="gJSb4Hx4qruTzhkWXDHl-10" value="Match-Service" style="rounded=0;whiteSpace=wrap;html=1;fillColor=#dae8fc;strokeColor=#6c8ebf;verticalAlign=top;" vertex="1" parent="1">
          <mxGeometry x="300" y="638" width="211" height="92" as="geometry" />
        </mxCell>
        <mxCell id="_NH5qcqJoXLWZ3RZgC6V-1" value="Waber" style="rounded=0;whiteSpace=wrap;html=1;verticalAlign=top;" parent="1" vertex="1">
          <mxGeometry x="87" y="9" width="590" height="370" as="geometry" />
        </mxCell>
        <mxCell id="_NH5qcqJoXLWZ3RZgC6V-8" style="edgeStyle=orthogonalEdgeStyle;rounded=0;orthogonalLoop=1;jettySize=auto;html=1;" parent="1" source="_NH5qcqJoXLWZ3RZgC6V-2" target="_NH5qcqJoXLWZ3RZgC6V-7" edge="1">
          <mxGeometry relative="1" as="geometry" />
        </mxCell>
        <mxCell id="_NH5qcqJoXLWZ3RZgC6V-27" style="edgeStyle=none;rounded=0;orthogonalLoop=1;jettySize=auto;html=1;entryX=0.25;entryY=0;entryDx=0;entryDy=0;" parent="1" source="_NH5qcqJoXLWZ3RZgC6V-2" target="_NH5qcqJoXLWZ3RZgC6V-22" edge="1">
          <mxGeometry relative="1" as="geometry" />
        </mxCell>
        <mxCell id="_NH5qcqJoXLWZ3RZgC6V-2" value="user-service" style="rounded=0;whiteSpace=wrap;html=1;fillColor=#dae8fc;strokeColor=#6c8ebf;" parent="1" vertex="1">
          <mxGeometry x="157" y="129" width="100" height="40" as="geometry" />
        </mxCell>
        <mxCell id="_NH5qcqJoXLWZ3RZgC6V-10" style="edgeStyle=orthogonalEdgeStyle;rounded=0;orthogonalLoop=1;jettySize=auto;html=1;entryX=0.5;entryY=1;entryDx=0;entryDy=0;entryPerimeter=0;" parent="1" source="_NH5qcqJoXLWZ3RZgC6V-3" target="_NH5qcqJoXLWZ3RZgC6V-9" edge="1">
          <mxGeometry relative="1" as="geometry" />
        </mxCell>
        <mxCell id="_NH5qcqJoXLWZ3RZgC6V-15" style="edgeStyle=orthogonalEdgeStyle;rounded=0;orthogonalLoop=1;jettySize=auto;html=1;" parent="1" source="_NH5qcqJoXLWZ3RZgC6V-3" target="_NH5qcqJoXLWZ3RZgC6V-2" edge="1">
          <mxGeometry relative="1" as="geometry" />
        </mxCell>
        <mxCell id="_NH5qcqJoXLWZ3RZgC6V-26" style="rounded=0;orthogonalLoop=1;jettySize=auto;html=1;" parent="1" source="_NH5qcqJoXLWZ3RZgC6V-3" target="_NH5qcqJoXLWZ3RZgC6V-22" edge="1">
          <mxGeometry relative="1" as="geometry" />
        </mxCell>
        <mxCell id="_NH5qcqJoXLWZ3RZgC6V-3" value="match-service" style="rounded=0;whiteSpace=wrap;html=1;fillColor=#dae8fc;strokeColor=#6c8ebf;" parent="1" vertex="1">
          <mxGeometry x="347" y="129" width="100" height="40" as="geometry" />
        </mxCell>
        <mxCell id="_NH5qcqJoXLWZ3RZgC6V-4" value="payment-service" style="rounded=0;whiteSpace=wrap;html=1;fillColor=#dae8fc;strokeColor=#6c8ebf;" parent="1" vertex="1">
          <mxGeometry x="157" y="239" width="100" height="40" as="geometry" />
        </mxCell>
        <mxCell id="_NH5qcqJoXLWZ3RZgC6V-14" style="edgeStyle=orthogonalEdgeStyle;rounded=0;orthogonalLoop=1;jettySize=auto;html=1;" parent="1" source="_NH5qcqJoXLWZ3RZgC6V-5" target="_NH5qcqJoXLWZ3RZgC6V-11" edge="1">
          <mxGeometry relative="1" as="geometry" />
        </mxCell>
        <mxCell id="_NH5qcqJoXLWZ3RZgC6V-16" style="edgeStyle=orthogonalEdgeStyle;rounded=0;orthogonalLoop=1;jettySize=auto;html=1;entryX=0.5;entryY=1;entryDx=0;entryDy=0;" parent="1" source="_NH5qcqJoXLWZ3RZgC6V-5" target="_NH5qcqJoXLWZ3RZgC6V-3" edge="1">
          <mxGeometry relative="1" as="geometry" />
        </mxCell>
        <mxCell id="_NH5qcqJoXLWZ3RZgC6V-18" style="edgeStyle=orthogonalEdgeStyle;rounded=0;orthogonalLoop=1;jettySize=auto;html=1;entryX=1;entryY=0.5;entryDx=0;entryDy=0;" parent="1" source="_NH5qcqJoXLWZ3RZgC6V-5" target="_NH5qcqJoXLWZ3RZgC6V-4" edge="1">
          <mxGeometry relative="1" as="geometry" />
        </mxCell>
        <mxCell id="_NH5qcqJoXLWZ3RZgC6V-29" style="edgeStyle=none;rounded=0;orthogonalLoop=1;jettySize=auto;html=1;" parent="1" source="_NH5qcqJoXLWZ3RZgC6V-5" target="_NH5qcqJoXLWZ3RZgC6V-22" edge="1">
          <mxGeometry relative="1" as="geometry" />
        </mxCell>
        <mxCell id="_NH5qcqJoXLWZ3RZgC6V-5" value="trip-service" style="rounded=0;whiteSpace=wrap;html=1;fillColor=#dae8fc;strokeColor=#6c8ebf;" parent="1" vertex="1">
          <mxGeometry x="347" y="239" width="100" height="40" as="geometry" />
        </mxCell>
        <mxCell id="_NH5qcqJoXLWZ3RZgC6V-7" value="MySQL" style="shape=cylinder3;whiteSpace=wrap;html=1;boundedLbl=1;backgroundOutline=1;size=15;fillColor=#fff2cc;strokeColor=#d6b656;" parent="1" vertex="1">
          <mxGeometry x="177" y="49" width="60" height="60" as="geometry" />
        </mxCell>
        <mxCell id="_NH5qcqJoXLWZ3RZgC6V-9" value="MySQL" style="shape=cylinder3;whiteSpace=wrap;html=1;boundedLbl=1;backgroundOutline=1;size=15;fillColor=#fff2cc;strokeColor=#d6b656;" parent="1" vertex="1">
          <mxGeometry x="367" y="49" width="60" height="60" as="geometry" />
        </mxCell>
        <mxCell id="_NH5qcqJoXLWZ3RZgC6V-11" value="MongoDB" style="shape=cylinder3;whiteSpace=wrap;html=1;boundedLbl=1;backgroundOutline=1;size=15;fillColor=#fff2cc;strokeColor=#d6b656;" parent="1" vertex="1">
          <mxGeometry x="367" y="299" width="60" height="60" as="geometry" />
        </mxCell>
        <mxCell id="ocdlDmOcUeQhUcbyRCNt-2" value="Websocket" style="edgeStyle=orthogonalEdgeStyle;rounded=0;orthogonalLoop=1;jettySize=auto;html=1;entryX=0.5;entryY=1;entryDx=0;entryDy=0;" parent="1" source="_NH5qcqJoXLWZ3RZgC6V-19" target="ocdlDmOcUeQhUcbyRCNt-1" edge="1">
          <mxGeometry relative="1" as="geometry" />
        </mxCell>
        <mxCell id="_NH5qcqJoXLWZ3RZgC6V-19" value="broker-sevice" style="whiteSpace=wrap;html=1;fillColor=#dae8fc;strokeColor=#6c8ebf;" parent="1" vertex="1">
          <mxGeometry x="507" y="129" width="120" height="40" as="geometry" />
        </mxCell>
        <mxCell id="_NH5qcqJoXLWZ3RZgC6V-23" style="edgeStyle=orthogonalEdgeStyle;rounded=0;orthogonalLoop=1;jettySize=auto;html=1;entryX=0.5;entryY=1;entryDx=0;entryDy=0;" parent="1" source="_NH5qcqJoXLWZ3RZgC6V-22" target="_NH5qcqJoXLWZ3RZgC6V-19" edge="1">
          <mxGeometry relative="1" as="geometry">
            <Array as="points">
              <mxPoint x="567" y="204" />
            </Array>
          </mxGeometry>
        </mxCell>
        <mxCell id="_NH5qcqJoXLWZ3RZgC6V-22" value="message queue" style="shape=process;whiteSpace=wrap;html=1;backgroundOutline=1;fillColor=#d5e8d4;strokeColor=#82b366;" parent="1" vertex="1">
          <mxGeometry x="227" y="189" width="140" height="30" as="geometry" />
        </mxCell>
        <mxCell id="ocdlDmOcUeQhUcbyRCNt-1" value="frontend" style="whiteSpace=wrap;html=1;fillColor=#dae8fc;strokeColor=#6c8ebf;" parent="1" vertex="1">
          <mxGeometry x="507" y="-62" width="120" height="40" as="geometry" />
        </mxCell>
        <mxCell id="gJSb4Hx4qruTzhkWXDHl-1" value="User" style="rounded=0;whiteSpace=wrap;html=1;fillColor=#f8cecc;strokeColor=#b85450;" vertex="1" parent="1">
          <mxGeometry x="180" y="670" width="120" height="60" as="geometry" />
        </mxCell>
        <mxCell id="gJSb4Hx4qruTzhkWXDHl-2" value="Match" style="rounded=0;whiteSpace=wrap;html=1;fillColor=#f8cecc;strokeColor=#b85450;" vertex="1" parent="1">
          <mxGeometry x="300" y="670" width="120" height="60" as="geometry" />
        </mxCell>
        <mxCell id="gJSb4Hx4qruTzhkWXDHl-3" value="Trip" style="rounded=0;whiteSpace=wrap;html=1;fillColor=#f8cecc;strokeColor=#b85450;" vertex="1" parent="1">
          <mxGeometry x="300" y="730" width="120" height="60" as="geometry" />
        </mxCell>
        <mxCell id="gJSb4Hx4qruTzhkWXDHl-4" value="Payment" style="rounded=0;whiteSpace=wrap;html=1;fillColor=#f8cecc;strokeColor=#b85450;" vertex="1" parent="1">
          <mxGeometry x="180" y="730" width="120" height="60" as="geometry" />
        </mxCell>
        <mxCell id="gJSb4Hx4qruTzhkWXDHl-6" value="" style="rounded=0;whiteSpace=wrap;html=1;fillColor=#fff2cc;strokeColor=#d6b656;" vertex="1" parent="1">
          <mxGeometry x="81" y="683" width="17" height="16" as="geometry" />
        </mxCell>
        <mxCell id="gJSb4Hx4qruTzhkWXDHl-7" value="" style="rounded=0;whiteSpace=wrap;html=1;fillColor=#fff2cc;strokeColor=#d6b656;" vertex="1" parent="1">
          <mxGeometry x="81" y="749" width="17" height="16" as="geometry" />
        </mxCell>
        <mxCell id="gJSb4Hx4qruTzhkWXDHl-8" value="" style="rounded=0;whiteSpace=wrap;html=1;fillColor=#fff2cc;strokeColor=#d6b656;" vertex="1" parent="1">
          <mxGeometry x="503" y="678" width="17" height="16" as="geometry" />
        </mxCell>
        <mxCell id="gJSb4Hx4qruTzhkWXDHl-9" value="" style="rounded=0;whiteSpace=wrap;html=1;fillColor=#fff2cc;strokeColor=#d6b656;" vertex="1" parent="1">
          <mxGeometry x="503" y="757" width="17" height="16" as="geometry" />
        </mxCell>
        <mxCell id="gJSb4Hx4qruTzhkWXDHl-14" value="MySQL" style="shape=cylinder3;whiteSpace=wrap;html=1;boundedLbl=1;backgroundOutline=1;size=15;fillColor=#ffe6cc;strokeColor=#d79b00;" vertex="1" parent="1">
          <mxGeometry x="149.5" y="515" width="60" height="60" as="geometry" />
        </mxCell>
        <mxCell id="gJSb4Hx4qruTzhkWXDHl-15" value="MySQL" style="shape=cylinder3;whiteSpace=wrap;html=1;boundedLbl=1;backgroundOutline=1;size=15;fillColor=#ffe6cc;strokeColor=#d79b00;" vertex="1" parent="1">
          <mxGeometry x="384" y="511" width="60" height="60" as="geometry" />
        </mxCell>
        <mxCell id="gJSb4Hx4qruTzhkWXDHl-16" value="MongoDB" style="shape=cylinder3;whiteSpace=wrap;html=1;boundedLbl=1;backgroundOutline=1;size=15;fillColor=#ffe6cc;strokeColor=#d79b00;" vertex="1" parent="1">
          <mxGeometry x="149.5" y="882" width="60" height="60" as="geometry" />
        </mxCell>
        <mxCell id="gJSb4Hx4qruTzhkWXDHl-17" value="MongoDB" style="shape=cylinder3;whiteSpace=wrap;html=1;boundedLbl=1;backgroundOutline=1;size=15;fillColor=#ffe6cc;strokeColor=#d79b00;" vertex="1" parent="1">
          <mxGeometry x="384" y="882" width="60" height="60" as="geometry" />
        </mxCell>
        <mxCell id="gJSb4Hx4qruTzhkWXDHl-18" value="RESTful" style="text;html=1;strokeColor=none;fillColor=none;align=center;verticalAlign=middle;whiteSpace=wrap;rounded=0;" vertex="1" parent="1">
          <mxGeometry x="41" y="663" width="40" height="20" as="geometry" />
        </mxCell>
        <mxCell id="gJSb4Hx4qruTzhkWXDHl-19" value="RESTful" style="text;html=1;strokeColor=none;fillColor=none;align=center;verticalAlign=middle;whiteSpace=wrap;rounded=0;" vertex="1" parent="1">
          <mxGeometry x="41" y="725" width="40" height="20" as="geometry" />
        </mxCell>
        <mxCell id="gJSb4Hx4qruTzhkWXDHl-20" value="RESTful" style="text;html=1;strokeColor=none;fillColor=none;align=center;verticalAlign=middle;whiteSpace=wrap;rounded=0;" vertex="1" parent="1">
          <mxGeometry x="523" y="655" width="40" height="20" as="geometry" />
        </mxCell>
        <mxCell id="gJSb4Hx4qruTzhkWXDHl-21" value="RESTful" style="text;html=1;strokeColor=none;fillColor=none;align=center;verticalAlign=middle;whiteSpace=wrap;rounded=0;" vertex="1" parent="1">
          <mxGeometry x="528" y="733" width="40" height="20" as="geometry" />
        </mxCell>
        <mxCell id="gJSb4Hx4qruTzhkWXDHl-31" style="edgeStyle=orthogonalEdgeStyle;rounded=0;orthogonalLoop=1;jettySize=auto;html=1;" edge="1" parent="1" source="gJSb4Hx4qruTzhkWXDHl-27" target="gJSb4Hx4qruTzhkWXDHl-14">
          <mxGeometry relative="1" as="geometry" />
        </mxCell>
        <mxCell id="gJSb4Hx4qruTzhkWXDHl-27" value="" style="rounded=0;whiteSpace=wrap;html=1;fillColor=#ffe6cc;strokeColor=#d79b00;" vertex="1" parent="1">
          <mxGeometry x="171" y="600" width="17" height="16" as="geometry" />
        </mxCell>
        <mxCell id="gJSb4Hx4qruTzhkWXDHl-32" style="edgeStyle=orthogonalEdgeStyle;rounded=0;orthogonalLoop=1;jettySize=auto;html=1;" edge="1" parent="1" source="gJSb4Hx4qruTzhkWXDHl-28" target="gJSb4Hx4qruTzhkWXDHl-15">
          <mxGeometry relative="1" as="geometry" />
        </mxCell>
        <mxCell id="gJSb4Hx4qruTzhkWXDHl-28" value="" style="rounded=0;whiteSpace=wrap;html=1;fillColor=#ffe6cc;strokeColor=#d79b00;" vertex="1" parent="1">
          <mxGeometry x="405.5" y="597" width="17" height="16" as="geometry" />
        </mxCell>
        <mxCell id="gJSb4Hx4qruTzhkWXDHl-33" style="edgeStyle=orthogonalEdgeStyle;rounded=0;orthogonalLoop=1;jettySize=auto;html=1;entryX=0.5;entryY=0;entryDx=0;entryDy=0;entryPerimeter=0;" edge="1" parent="1" source="gJSb4Hx4qruTzhkWXDHl-29" target="gJSb4Hx4qruTzhkWXDHl-16">
          <mxGeometry relative="1" as="geometry" />
        </mxCell>
        <mxCell id="gJSb4Hx4qruTzhkWXDHl-29" value="" style="rounded=0;whiteSpace=wrap;html=1;fillColor=#ffe6cc;strokeColor=#d79b00;" vertex="1" parent="1">
          <mxGeometry x="171" y="838" width="17" height="16" as="geometry" />
        </mxCell>
        <mxCell id="gJSb4Hx4qruTzhkWXDHl-34" style="edgeStyle=orthogonalEdgeStyle;rounded=0;orthogonalLoop=1;jettySize=auto;html=1;entryX=0.5;entryY=0;entryDx=0;entryDy=0;entryPerimeter=0;" edge="1" parent="1" source="gJSb4Hx4qruTzhkWXDHl-30" target="gJSb4Hx4qruTzhkWXDHl-17">
          <mxGeometry relative="1" as="geometry" />
        </mxCell>
        <mxCell id="gJSb4Hx4qruTzhkWXDHl-30" value="" style="rounded=0;whiteSpace=wrap;html=1;fillColor=#ffe6cc;strokeColor=#d79b00;" vertex="1" parent="1">
          <mxGeometry x="405.5" y="838" width="17" height="16" as="geometry" />
        </mxCell>
        <mxCell id="gJSb4Hx4qruTzhkWXDHl-35" value="ORM" style="text;html=1;strokeColor=none;fillColor=none;align=center;verticalAlign=middle;whiteSpace=wrap;rounded=0;" vertex="1" parent="1">
          <mxGeometry x="425" y="579.5" width="40" height="20" as="geometry" />
        </mxCell>
        <mxCell id="gJSb4Hx4qruTzhkWXDHl-37" value="ORM" style="text;html=1;strokeColor=none;fillColor=none;align=center;verticalAlign=middle;whiteSpace=wrap;rounded=0;" vertex="1" parent="1">
          <mxGeometry x="192" y="580" width="40" height="20" as="geometry" />
        </mxCell>
        <mxCell id="gJSb4Hx4qruTzhkWXDHl-38" value="Spring Boot Data" style="text;html=1;strokeColor=none;fillColor=none;align=center;verticalAlign=middle;whiteSpace=wrap;rounded=0;" vertex="1" parent="1">
          <mxGeometry x="192" y="854" width="104" height="20" as="geometry" />
        </mxCell>
        <mxCell id="gJSb4Hx4qruTzhkWXDHl-41" value="Spring Boot Data" style="text;html=1;strokeColor=none;fillColor=none;align=center;verticalAlign=middle;whiteSpace=wrap;rounded=0;" vertex="1" parent="1">
          <mxGeometry x="420" y="856" width="104" height="20" as="geometry" />
        </mxCell>
        <mxCell id="gJSb4Hx4qruTzhkWXDHl-63" value="" style="group" vertex="1" connectable="0" parent="1">
          <mxGeometry x="604" y="597" width="177" height="165" as="geometry" />
        </mxCell>
        <mxCell id="gJSb4Hx4qruTzhkWXDHl-53" value="" style="rounded=0;whiteSpace=wrap;html=1;" vertex="1" parent="gJSb4Hx4qruTzhkWXDHl-63">
          <mxGeometry width="177" height="165" as="geometry" />
        </mxCell>
        <mxCell id="gJSb4Hx4qruTzhkWXDHl-54" value="" style="rounded=0;whiteSpace=wrap;html=1;fillColor=#f8cecc;strokeColor=#b85450;" vertex="1" parent="gJSb4Hx4qruTzhkWXDHl-63">
          <mxGeometry x="18" y="21" width="27" height="21" as="geometry" />
        </mxCell>
        <mxCell id="gJSb4Hx4qruTzhkWXDHl-55" value="Domain Layer" style="text;html=1;strokeColor=none;fillColor=none;align=center;verticalAlign=middle;whiteSpace=wrap;rounded=0;" vertex="1" parent="gJSb4Hx4qruTzhkWXDHl-63">
          <mxGeometry x="62" y="22" width="87" height="20" as="geometry" />
        </mxCell>
        <mxCell id="gJSb4Hx4qruTzhkWXDHl-57" value="" style="rounded=0;whiteSpace=wrap;html=1;fillColor=#dae8fc;strokeColor=#6c8ebf;" vertex="1" parent="gJSb4Hx4qruTzhkWXDHl-63">
          <mxGeometry x="18" y="53" width="27" height="21" as="geometry" />
        </mxCell>
        <mxCell id="gJSb4Hx4qruTzhkWXDHl-58" value="Technical Layer" style="text;html=1;strokeColor=none;fillColor=none;align=center;verticalAlign=middle;whiteSpace=wrap;rounded=0;" vertex="1" parent="gJSb4Hx4qruTzhkWXDHl-63">
          <mxGeometry x="62" y="54" width="89" height="20" as="geometry" />
        </mxCell>
        <mxCell id="gJSb4Hx4qruTzhkWXDHl-59" value="" style="rounded=0;whiteSpace=wrap;html=1;fillColor=#ffe6cc;strokeColor=#d79b00;" vertex="1" parent="gJSb4Hx4qruTzhkWXDHl-63">
          <mxGeometry x="18" y="88" width="27" height="21" as="geometry" />
        </mxCell>
        <mxCell id="gJSb4Hx4qruTzhkWXDHl-60" value="Persistence" style="text;html=1;strokeColor=none;fillColor=none;align=center;verticalAlign=middle;whiteSpace=wrap;rounded=0;" vertex="1" parent="gJSb4Hx4qruTzhkWXDHl-63">
          <mxGeometry x="49" y="88" width="102" height="20" as="geometry" />
        </mxCell>
        <mxCell id="gJSb4Hx4qruTzhkWXDHl-61" value="" style="rounded=0;whiteSpace=wrap;html=1;fillColor=#fff2cc;strokeColor=#d6b656;" vertex="1" parent="gJSb4Hx4qruTzhkWXDHl-63">
          <mxGeometry x="18" y="121" width="27" height="21" as="geometry" />
        </mxCell>
        <mxCell id="gJSb4Hx4qruTzhkWXDHl-62" value="Endpoints" style="text;html=1;strokeColor=none;fillColor=none;align=center;verticalAlign=middle;whiteSpace=wrap;rounded=0;" vertex="1" parent="gJSb4Hx4qruTzhkWXDHl-63">
          <mxGeometry x="57" y="122" width="86" height="20" as="geometry" />
        </mxCell>
        <mxCell id="gJSb4Hx4qruTzhkWXDHl-64" value="User-Service" style="rounded=0;whiteSpace=wrap;html=1;fillColor=#dae8fc;strokeColor=#6c8ebf;verticalAlign=middle;" vertex="1" parent="1">
          <mxGeometry x="36" y="976" width="137" height="58" as="geometry" />
        </mxCell>
        <mxCell id="gJSb4Hx4qruTzhkWXDHl-65" value="Trip-Service" style="rounded=0;whiteSpace=wrap;html=1;fillColor=#dae8fc;strokeColor=#6c8ebf;verticalAlign=middle;" vertex="1" parent="1">
          <mxGeometry x="540.5" y="1092" width="150" height="64" as="geometry" />
        </mxCell>
        <mxCell id="gJSb4Hx4qruTzhkWXDHl-66" value="Payment-Service" style="rounded=0;whiteSpace=wrap;html=1;fillColor=#dae8fc;strokeColor=#6c8ebf;verticalAlign=middle;" vertex="1" parent="1">
          <mxGeometry x="37" y="1102" width="135" height="58" as="geometry" />
        </mxCell>
        <mxCell id="gJSb4Hx4qruTzhkWXDHl-67" value="Match-Service" style="rounded=0;whiteSpace=wrap;html=1;fillColor=#dae8fc;strokeColor=#6c8ebf;verticalAlign=middle;" vertex="1" parent="1">
          <mxGeometry x="539" y="971" width="153" height="60" as="geometry" />
        </mxCell>
        <mxCell id="gJSb4Hx4qruTzhkWXDHl-68" value="Chaos-Server" style="rounded=0;whiteSpace=wrap;html=1;fillColor=#fff2cc;strokeColor=#d6b656;verticalAlign=middle;" vertex="1" parent="1">
          <mxGeometry x="296" y="1027" width="118" height="61" as="geometry" />
        </mxCell>
        <mxCell id="gJSb4Hx4qruTzhkWXDHl-75" style="edgeStyle=orthogonalEdgeStyle;rounded=0;orthogonalLoop=1;jettySize=auto;html=1;entryX=0;entryY=0.5;entryDx=0;entryDy=0;endArrow=none;endFill=0;" edge="1" parent="1">
          <mxGeometry relative="1" as="geometry">
            <mxPoint x="236" y="1131" as="sourcePoint" />
            <mxPoint x="294" y="1057.5" as="targetPoint" />
            <Array as="points">
              <mxPoint x="265" y="1131" />
              <mxPoint x="265" y="1058" />
            </Array>
          </mxGeometry>
        </mxCell>
        <mxCell id="gJSb4Hx4qruTzhkWXDHl-69" value="Chaos Client" style="rounded=0;whiteSpace=wrap;html=1;fillColor=#fff2cc;strokeColor=#d6b656;verticalAlign=middle;" vertex="1" parent="1">
          <mxGeometry x="160" y="1117" width="78" height="28" as="geometry" />
        </mxCell>
        <mxCell id="gJSb4Hx4qruTzhkWXDHl-74" style="edgeStyle=orthogonalEdgeStyle;rounded=0;orthogonalLoop=1;jettySize=auto;html=1;entryX=0;entryY=0.5;entryDx=0;entryDy=0;endArrow=none;endFill=0;" edge="1" parent="1" source="gJSb4Hx4qruTzhkWXDHl-70" target="gJSb4Hx4qruTzhkWXDHl-68">
          <mxGeometry relative="1" as="geometry" />
        </mxCell>
        <mxCell id="gJSb4Hx4qruTzhkWXDHl-70" value="Chaos Client" style="rounded=0;whiteSpace=wrap;html=1;fillColor=#fff2cc;strokeColor=#d6b656;verticalAlign=middle;" vertex="1" parent="1">
          <mxGeometry x="156" y="994" width="78" height="28" as="geometry" />
        </mxCell>
        <mxCell id="gJSb4Hx4qruTzhkWXDHl-76" style="edgeStyle=orthogonalEdgeStyle;rounded=0;orthogonalLoop=1;jettySize=auto;html=1;entryX=1;entryY=0.5;entryDx=0;entryDy=0;endArrow=none;endFill=0;" edge="1" parent="1" source="gJSb4Hx4qruTzhkWXDHl-71" target="gJSb4Hx4qruTzhkWXDHl-68">
          <mxGeometry relative="1" as="geometry" />
        </mxCell>
        <mxCell id="gJSb4Hx4qruTzhkWXDHl-71" value="Chaos Client" style="rounded=0;whiteSpace=wrap;html=1;fillColor=#fff2cc;strokeColor=#d6b656;verticalAlign=middle;" vertex="1" parent="1">
          <mxGeometry x="475" y="987" width="78" height="28" as="geometry" />
        </mxCell>
        <mxCell id="gJSb4Hx4qruTzhkWXDHl-77" style="edgeStyle=orthogonalEdgeStyle;rounded=0;orthogonalLoop=1;jettySize=auto;html=1;entryX=1;entryY=0.5;entryDx=0;entryDy=0;endArrow=none;endFill=0;" edge="1" parent="1" source="gJSb4Hx4qruTzhkWXDHl-72" target="gJSb4Hx4qruTzhkWXDHl-68">
          <mxGeometry relative="1" as="geometry" />
        </mxCell>
        <mxCell id="gJSb4Hx4qruTzhkWXDHl-72" value="Chaos Client" style="rounded=0;whiteSpace=wrap;html=1;fillColor=#fff2cc;strokeColor=#d6b656;verticalAlign=middle;" vertex="1" parent="1">
          <mxGeometry x="475" y="1113" width="78" height="28" as="geometry" />
        </mxCell>
        <mxCell id="gJSb4Hx4qruTzhkWXDHl-78" value="" style="shape=image;html=1;verticalAlign=top;verticalLabelPosition=bottom;labelBackgroundColor=#ffffff;imageAspect=0;aspect=fixed;image=https://cdn1.iconfinder.com/data/icons/Hooligans_Icons/128/Bomb.png" vertex="1" parent="1">
          <mxGeometry x="15" y="946" width="48" height="48" as="geometry" />
        </mxCell>
        <mxCell id="gJSb4Hx4qruTzhkWXDHl-79" value="" style="shape=image;html=1;verticalAlign=top;verticalLabelPosition=bottom;labelBackgroundColor=#ffffff;imageAspect=0;aspect=fixed;image=https://cdn1.iconfinder.com/data/icons/Hooligans_Icons/128/Bomb.png" vertex="1" parent="1">
          <mxGeometry x="17" y="1067" width="48" height="48" as="geometry" />
        </mxCell>
        <mxCell id="gJSb4Hx4qruTzhkWXDHl-80" value="" style="shape=image;html=1;verticalAlign=top;verticalLabelPosition=bottom;labelBackgroundColor=#ffffff;imageAspect=0;aspect=fixed;image=https://cdn1.iconfinder.com/data/icons/Hooligans_Icons/128/Bomb.png" vertex="1" parent="1">
          <mxGeometry x="666" y="942" width="48" height="48" as="geometry" />
        </mxCell>
        <mxCell id="gJSb4Hx4qruTzhkWXDHl-81" value="" style="shape=image;html=1;verticalAlign=top;verticalLabelPosition=bottom;labelBackgroundColor=#ffffff;imageAspect=0;aspect=fixed;image=https://cdn1.iconfinder.com/data/icons/Hooligans_Icons/128/Bomb.png" vertex="1" parent="1">
          <mxGeometry x="664" y="1061" width="48" height="48" as="geometry" />
        </mxCell>
        <mxCell id="gJSb4Hx4qruTzhkWXDHl-84" value="" style="shape=image;html=1;verticalAlign=top;verticalLabelPosition=bottom;labelBackgroundColor=#ffffff;imageAspect=0;aspect=fixed;image=https://cdn3.iconfinder.com/data/icons/solid-locations-icon-set/64/Hunting_2-128.png" vertex="1" parent="1">
          <mxGeometry x="329.5" y="1067" width="51" height="51" as="geometry" />
        </mxCell>
        <mxCell id="gJSb4Hx4qruTzhkWXDHl-86" value="&lt;font style=&quot;font-size: 13px&quot; color=&quot;#ff0000&quot;&gt;/api/chaos/kill/{#chaos}&lt;/font&gt;" style="edgeStyle=orthogonalEdgeStyle;rounded=0;orthogonalLoop=1;jettySize=auto;html=1;entryX=0.5;entryY=1;entryDx=0;entryDy=0;" edge="1" parent="1" source="gJSb4Hx4qruTzhkWXDHl-85" target="gJSb4Hx4qruTzhkWXDHl-84">
          <mxGeometry relative="1" as="geometry" />
        </mxCell>
        <mxCell id="gJSb4Hx4qruTzhkWXDHl-85" value="SRE" style="shape=umlActor;verticalLabelPosition=bottom;verticalAlign=top;html=1;outlineConnect=0;" vertex="1" parent="1">
          <mxGeometry x="340" y="1189" width="30" height="60" as="geometry" />
        </mxCell>
        <mxCell id="gJSb4Hx4qruTzhkWXDHl-95" value="" style="group" vertex="1" connectable="0" parent="1">
          <mxGeometry x="403" y="1187" width="326" height="38" as="geometry" />
        </mxCell>
        <mxCell id="gJSb4Hx4qruTzhkWXDHl-87" value="&lt;font color=&quot;#0000cc&quot;&gt;hash&lt;/font&gt;(&lt;font color=&quot;#ff0000&quot;&gt;FunValue&lt;/font&gt;) = [&amp;nbsp; &amp;nbsp; &amp;nbsp; &amp;nbsp; &amp;nbsp; &amp;nbsp; &amp;nbsp; &amp;nbsp; &amp;nbsp; &amp;nbsp; &amp;nbsp; &amp;nbsp; &amp;nbsp; &amp;nbsp; &amp;nbsp; &amp;nbsp; &amp;nbsp; &amp;nbsp; ]" style="text;html=1;strokeColor=none;fillColor=none;align=center;verticalAlign=middle;whiteSpace=wrap;rounded=0;fontFamily=Times New Roman;fontSize=16;" vertex="1" parent="gJSb4Hx4qruTzhkWXDHl-95">
          <mxGeometry y="11" width="326" height="20" as="geometry" />
        </mxCell>
        <mxCell id="gJSb4Hx4qruTzhkWXDHl-94" value="" style="group" vertex="1" connectable="0" parent="gJSb4Hx4qruTzhkWXDHl-95">
          <mxGeometry x="149" width="146" height="38" as="geometry" />
        </mxCell>
        <mxCell id="gJSb4Hx4qruTzhkWXDHl-90" value="" style="shape=image;html=1;verticalAlign=top;verticalLabelPosition=bottom;labelBackgroundColor=#ffffff;imageAspect=0;aspect=fixed;image=https://cdn1.iconfinder.com/data/icons/Hooligans_Icons/128/Bomb.png" vertex="1" parent="gJSb4Hx4qruTzhkWXDHl-94">
          <mxGeometry width="38" height="38" as="geometry" />
        </mxCell>
        <mxCell id="gJSb4Hx4qruTzhkWXDHl-91" value="" style="shape=image;html=1;verticalAlign=top;verticalLabelPosition=bottom;labelBackgroundColor=#ffffff;imageAspect=0;aspect=fixed;image=https://cdn1.iconfinder.com/data/icons/Hooligans_Icons/128/Bomb.png" vertex="1" parent="gJSb4Hx4qruTzhkWXDHl-94">
          <mxGeometry x="37" width="38" height="38" as="geometry" />
        </mxCell>
        <mxCell id="gJSb4Hx4qruTzhkWXDHl-92" value="" style="shape=image;html=1;verticalAlign=top;verticalLabelPosition=bottom;labelBackgroundColor=#ffffff;imageAspect=0;aspect=fixed;image=https://cdn1.iconfinder.com/data/icons/Hooligans_Icons/128/Bomb.png" vertex="1" parent="gJSb4Hx4qruTzhkWXDHl-94">
          <mxGeometry x="72" width="38" height="38" as="geometry" />
        </mxCell>
        <mxCell id="gJSb4Hx4qruTzhkWXDHl-93" value="" style="shape=image;html=1;verticalAlign=top;verticalLabelPosition=bottom;labelBackgroundColor=#ffffff;imageAspect=0;aspect=fixed;image=https://cdn1.iconfinder.com/data/icons/Hooligans_Icons/128/Bomb.png" vertex="1" parent="gJSb4Hx4qruTzhkWXDHl-94">
          <mxGeometry x="108" width="38" height="38" as="geometry" />
        </mxCell>
        <mxCell id="gJSb4Hx4qruTzhkWXDHl-97" value="Software Architecture" style="text;html=1;strokeColor=none;fillColor=none;align=center;verticalAlign=middle;whiteSpace=wrap;rounded=0;fontFamily=Times New Roman;fontSize=19;" vertex="1" parent="1">
          <mxGeometry x="171" y="444" width="267" height="20" as="geometry" />
        </mxCell>
        <mxCell id="gJSb4Hx4qruTzhkWXDHl-98" value="System Architecture" style="text;html=1;strokeColor=none;fillColor=none;align=center;verticalAlign=middle;whiteSpace=wrap;rounded=0;fontFamily=Times New Roman;fontSize=19;" vertex="1" parent="1">
          <mxGeometry x="237" y="-146" width="267" height="20" as="geometry" />
        </mxCell>
      </root>
    </mxGraphModel>
  </diagram>
</mxfile>
